<?xml version="1.0" encoding="UTF-8"?>
<!DOCTYPE svg PUBLIC "-//W3C//DTD SVG 1.1//EN" "http://www.w3.org/Graphics/SVG/1.1/DTD/svg11.dtd">
<svg xmlns="http://www.w3.org/2000/svg" version="1.1" width="892px" height="196px" style="shape-rendering:geometricPrecision; text-rendering:geometricPrecision; image-rendering:optimizeQuality; fill-rule:evenodd; clip-rule:evenodd" xmlns:xlink="http://www.w3.org/1999/xlink">
<g><path style="opacity:0.991" fill="#fdfdfd" d="M 17.5,19.5 C 38.5,19.5 59.5,19.5 80.5,19.5C 80.2865,21.1439 80.6198,22.6439 81.5,24C 74.9101,24.3196 68.5768,25.6529 62.5,28C 59.4143,31.9235 57.9143,36.4235 58,41.5C 57.3333,78.5 57.3333,115.5 58,152.5C 58.1729,156.719 59.1729,160.719 61,164.5C 62.4194,165.46 63.9194,166.293 65.5,167C 80.2191,169.145 94.8857,168.811 109.5,166C 125.403,161.429 137.07,151.763 144.5,137C 146.473,136.505 148.473,136.338 150.5,136.5C 148.277,149.781 145.61,162.948 142.5,176C 99.8784,174.624 57.2118,174.124 14.5,174.5C 14.3379,172.473 14.5045,170.473 15,168.5C 20.9837,169.36 26.817,168.526 32.5,166C 35.3102,163.427 36.3102,160.427 35.5,157C 36.1258,156.25 36.6258,155.416 37,154.5C 37.6667,116.167 37.6667,77.8333 37,39.5C 35.9658,27.7064 29.4658,22.7064 17.5,24.5C 17.5,22.8333 17.5,21.1667 17.5,19.5 Z"/></g>
<g><path style="opacity:0.985" fill="#fbfbfb" d="M 234.5,78.5 C 273.938,76.4537 293.104,95.1204 292,134.5C 286.104,165.051 267.604,178.885 236.5,176C 215.989,173.489 202.822,162.322 197,142.5C 193.503,127.04 195.503,112.373 203,98.5C 210.895,87.641 221.395,80.9743 234.5,78.5 Z M 240.5,83.5 C 259.514,84.3616 270.348,94.0282 273,112.5C 276.511,129.423 274.178,145.423 266,160.5C 255.089,171.68 242.589,173.846 228.5,167C 217.138,156.436 212.138,143.269 213.5,127.5C 212.505,113.285 216.505,100.785 225.5,90C 230.142,86.7399 235.142,84.5732 240.5,83.5 Z"/></g>
<g><path style="opacity:0.984" fill="#fafafa" d="M 404.5,176.5 C 403.5,175.167 402.5,175.167 401.5,176.5C 369.413,178.415 354.746,163.748 357.5,132.5C 358.833,129.833 358.833,127.167 357.5,124.5C 357.667,113.495 357.5,102.495 357,91.5C 356.727,89.6711 355.893,88.1711 354.5,87C 351.043,85.2565 347.377,84.2565 343.5,84C 342.594,82.3005 342.261,80.4672 342.5,78.5C 360.179,78.1671 377.846,78.5005 395.5,79.5C 394.289,80.7202 394.289,81.8869 395.5,83C 394.675,84.6883 393.675,84.8549 392.5,83.5C 389.891,84.2305 387.224,84.7305 384.5,85C 381.542,85.2293 379.042,86.396 377,88.5C 375.383,108.115 375.049,127.782 376,147.5C 378.314,162.436 387.147,169.436 402.5,168.5C 418.697,169.333 428.864,162 433,146.5C 433.667,128.833 433.667,111.167 433,93.5C 432.484,90.9664 431.317,88.7998 429.5,87C 425.362,84.8998 421.195,84.0665 417,84.5C 415.681,82.7505 415.181,80.7505 415.5,78.5C 428.167,78.5 440.833,78.5 453.5,78.5C 453.785,80.288 453.452,81.9547 452.5,83.5C 446.724,84.1174 442.891,87.1174 441,92.5C 440.013,113.175 439.013,133.842 438,154.5C 431.314,168.44 420.147,175.773 404.5,176.5 Z"/></g>
<g><path style="opacity:0.984" fill="#fcfcfc" d="M 498.5,78.5 C 512.5,78.5 526.5,78.5 540.5,78.5C 540.66,80.1992 540.494,81.8659 540,83.5C 533.984,83.7533 530.151,86.7533 528.5,92.5C 536.115,113.171 544.615,133.505 554,153.5C 561.128,132.965 567.628,112.632 573.5,92.5C 573.881,89.6753 572.881,87.5087 570.5,86C 567.361,85.2457 564.361,84.2457 561.5,83C 562.833,81.6667 562.833,80.3333 561.5,79C 573.495,78.5001 585.495,78.3335 597.5,78.5C 597.785,80.288 597.452,81.9547 596.5,83.5C 591.623,84.1856 587.789,86.519 585,90.5C 574.265,118.206 563.431,145.873 552.5,173.5C 549.329,176.335 546.496,176.002 544,172.5C 532.275,144.717 520.275,117.05 508,89.5C 505.766,86.2514 502.766,84.2514 499,83.5C 498.506,81.8659 498.34,80.1992 498.5,78.5 Z"/></g>
<g><path style="opacity:0.978" fill="#fbfbfb" d="M 640.5,79.5 C 655.328,78.3389 670.328,78.1723 685.5,79C 694.328,79.2759 702.328,81.9426 709.5,87C 719.554,99.804 718.554,111.804 706.5,123C 703.5,124.833 700.5,126.667 697.5,128.5C 706.556,142.111 716.223,155.278 726.5,168C 729.014,169.252 731.68,169.752 734.5,169.5C 734.5,171.167 734.5,172.833 734.5,174.5C 726.389,174.935 718.389,174.435 710.5,173C 701.08,158.826 691.413,144.826 681.5,131C 678.522,130.304 675.522,129.804 672.5,129.5C 672.333,141.171 672.5,152.838 673,164.5C 673.5,166.333 674.667,167.5 676.5,168C 678.764,168.236 680.931,168.736 683,169.5C 683.333,169.167 683.667,168.833 684,168.5C 684.495,170.473 684.662,172.473 684.5,174.5C 669.83,174.667 655.163,174.5 640.5,174C 641.833,172.667 641.833,171.333 640.5,170C 641.253,168.513 642.086,168.346 643,169.5C 645.069,168.736 647.236,168.236 649.5,168C 651.492,167.426 652.992,166.259 654,164.5C 654.833,138.827 654.666,113.16 653.5,87.5C 652.646,86.4783 651.646,85.6449 650.5,85C 648.102,84.6256 645.769,84.6256 643.5,85C 643.833,84.6667 644.167,84.3333 644.5,84C 643.167,83.6667 641.833,83.3333 640.5,83C 641.791,81.7083 641.791,80.5417 640.5,79.5 Z M 679.5,83.5 C 690.221,83.058 696.721,88.058 699,98.5C 701.439,118.896 692.605,127.563 672.5,124.5C 672.333,112.495 672.5,100.495 673,88.5C 674.272,85.5081 676.438,83.8414 679.5,83.5 Z"/></g>
<g><path style="opacity:0.975" fill="#fafafa" d="M 778.5,78.5 C 804.167,78.5 829.833,78.5 855.5,78.5C 856.36,84.2718 857.693,89.9385 859.5,95.5C 858.332,97.3969 856.665,97.5636 854.5,96C 851.141,90.1485 846.141,86.4818 839.5,85C 833.539,83.7607 827.539,83.4274 821.5,84C 818.542,84.2293 816.042,85.396 814,87.5C 813.333,98.5 813.333,109.5 814,120.5C 814.5,121 815,121.5 815.5,122C 822.276,122.92 828.943,122.586 835.5,121C 838.985,117.531 840.985,113.364 841.5,108.5C 843.5,108.5 845.5,108.5 847.5,108.5C 847.976,119.663 847.476,130.663 846,141.5C 844.602,140.949 843.268,140.616 842,140.5C 841.362,135.377 838.862,131.543 834.5,129C 828.5,128.333 822.5,128.333 816.5,129C 815.572,129.388 814.905,130.055 814.5,131C 813.366,142.133 813.199,153.299 814,164.5C 814.935,167.102 816.768,168.602 819.5,169C 831.57,170.707 842.903,168.707 853.5,163C 857.115,159.381 859.949,155.214 862,150.5C 863.268,150.384 864.602,150.051 866,149.5C 866.692,150.025 867.192,150.692 867.5,151.5C 865.652,159.074 864.319,166.74 863.5,174.5C 835.167,174.5 806.833,174.5 778.5,174.5C 778.5,172.833 778.5,171.167 778.5,169.5C 784.301,169.258 789.801,167.925 795,165.5C 795.667,139.833 795.667,114.167 795,88.5C 794.348,86.2769 792.848,85.1102 790.5,85C 786.509,84.3583 782.509,83.8583 778.5,83.5C 778.5,81.8333 778.5,80.1667 778.5,78.5 Z"/></g>
<g><path style="opacity:0.329" fill="#4f4f4f" d="M 357.5,124.5 C 358.833,127.167 358.833,129.833 357.5,132.5C 356.629,129.938 356.629,127.272 357.5,124.5 Z"/></g>
<g><path style="opacity:0.085" fill="#636363" d="M 401.5,176.5 C 402.5,175.167 403.5,175.167 404.5,176.5C 403.652,177.625 402.652,177.625 401.5,176.5 Z"/></g>
</svg>
